<svg width="197" height="188" viewBox="0 0 197 188" fill="none" xmlns="http://www.w3.org/2000/svg">
<path d="M85.0117 1H1.83887V78.1361H85.0117V1ZM85.0117 1L105.805 19.1821" stroke="#000072"/>
<path d="M86.5205 78.1357L124.25 116.704" stroke="#000072"/>
<path d="M124.758 117.542V100.9M124.758 100.9L106.643 74.2737M124.758 100.9L194.385 101.733M106.643 74.2737V7.70703H176.837M106.643 74.2737H176.837M176.837 7.70703V74.2737M176.837 7.70703L195.517 38.4941L194.385 101.733M176.837 74.2737L194.385 101.733" stroke="#000072"/>
<path d="M1 78.1357L22.7993 95.7429" stroke="#000072"/>
<path d="M23.9609 96.4189H84.0379L104.725 116.541H125.412" stroke="#000072"/>
<path d="M80.652 166.171V99.9346H13.5771V166.171H80.652Z" stroke="#000072"/>
<path d="M80.5691 166.279L107.705 187.132M107.705 187.132L102.656 116.703H122.574M107.705 187.132H45.2358L13.5771 167.669" stroke="#000072"/>
</svg>
