<svg width="272" height="247" viewBox="0 0 272 247" fill="none" xmlns="http://www.w3.org/2000/svg">
<path d="M222.42 2H167.315M222.42 2V104.258M222.42 2L246.549 21.5M2 206.516H57.1051M2 206.516V155.387M2 206.516L27.3394 225.831M222.42 206.516H167.315M222.42 206.516V104.258M222.42 206.516L246.549 225.831M270.679 245.146H212.339M270.679 245.146V206.516M270.679 245.146L246.549 225.831M112.21 206.516V2M112.21 206.516H57.1051M112.21 206.516H167.315M112.21 206.516L154 245.146M112.21 2H57.1051M112.21 2H167.315M57.1051 206.516V2M57.1051 206.516L103 245.146M57.1051 2L2 2V53.1289M167.315 206.516V2M167.315 206.516L212.339 245.146M103 245.146H52.6787L27.3394 225.831M103 245.146H154M154 245.146H212.339M2 104.258H222.42M2 104.258V53.1289M2 104.258V155.387M222.42 104.258L2 53.1289M222.42 104.258L2 155.387M222.42 104.258L270.679 99M222.42 104.258L270.679 150M222.42 104.258L270.679 206.516M270.679 99V41L246.549 21.5M270.679 99V150M270.679 150V206.516M246.549 21.5V225.831M246.549 225.831H27.3394" stroke="#000068" stroke-width="2.62"/>
</svg>
