<svg width="401" height="52" viewBox="0 0 401 52" fill="none" xmlns="http://www.w3.org/2000/svg">
<path d="M11.1724 14.8947H1.74055L1.15252 15.4827L1.17605 47.2595L1.78759 47.8475H11.1724V47.824L22.3449 36.6515L22.3213 24.8911H22.3449L11.1724 14.8947ZM23.5209 37.2395L11.7605 49H0V13.7186H11.7605L23.5209 24.303V37.2395ZM29.4011 14.8947V13.7186H52.922V14.8947H42.3376L41.7496 15.4827V47.2359L42.3376 47.824H52.922V49H29.4011V47.824H39.9855L40.5736 47.2359V15.4827L39.9855 14.8947H29.4011ZM82.3232 49H58.8023V13.7186H82.3232V25.4791H81.1471V15.4827L80.5591 14.8947H60.5428L59.9548 15.4827V47.2359L60.5663 47.824H81.1471V38.4156L80.5591 37.8276H69.9747V36.6515H82.3232V49ZM88.2034 14.8947V13.7186H111.724V14.8947H101.14L100.552 15.4827V47.2359L101.14 47.824H111.724V49H88.2034V47.824H98.7878L99.3758 47.2359V15.4827L98.7878 14.8947H88.2034ZM117.605 14.8947V13.7186H141.125V14.8947H130.541L129.953 15.4827V49H128.777V15.4827L128.189 14.8947H117.605ZM156.367 36.0635V24.8911L145.783 14.8947L135.198 24.8911V36.0635L135.786 36.6515H155.779L156.367 36.0635ZM135.786 37.8276L135.198 38.4156V49H134.022V24.303L145.195 13.7186H146.371L157.543 24.303V49H156.367V38.4156L155.779 37.8276H135.786ZM186.944 47.824V49H163.423V13.7186H164.576V47.2359L165.187 47.824H186.944ZM245.746 49H222.226V13.7186H245.746V25.4791H244.57V15.4827L243.982 14.8947H223.966L223.378 15.4827V47.2359L223.99 47.824H244.57V38.4156L243.982 37.8276H233.398V36.6515H245.746V49ZM273.972 36.0635V24.8911L263.387 14.8947L252.803 24.8911V36.0635L253.391 36.6515H273.384L273.972 36.0635ZM253.391 37.8276L252.803 38.4156V49H251.627V24.303L262.799 13.7186H263.975L275.148 24.303V49H273.972V38.4156L273.384 37.8276H253.391ZM282.792 14.8947L282.204 15.4827V30.1833L282.815 30.7713H302.785L303.373 30.1598V15.4827L302.808 14.8947H282.792ZM281.028 13.7186H304.549V31.9473H283.192L304.549 47.824V49H303.961L282.204 32.8176V49H281.028V13.7186ZM321.601 14.8947H312.169L311.581 15.4827L311.605 47.2595L312.217 47.8475H321.601V47.824L332.774 36.6515L332.75 24.8911H332.774L321.601 14.8947ZM333.95 37.2395L322.189 49H310.429V13.7186H322.189L333.95 24.303V37.2395ZM339.83 49V13.7186H363.351V14.8947H341.594L341.006 15.4827V30.1833L341.618 30.7713H358.059V31.9473H341.594L341.006 32.5354V47.2359L341.594 47.824H363.351V49H339.83ZM370.407 15.4827V49H369.231V13.7186H370.995L391.576 47.2359V13.7186H392.752V49H390.988L370.407 15.4827Z" fill="#110892"/>
<path d="M11.1724 14.8947L11.7059 14.2985L11.4781 14.0947H11.1724V14.8947ZM1.74055 14.8947V14.0947H1.40918L1.17486 14.329L1.74055 14.8947ZM1.15252 15.4827L0.586839 14.917L0.352279 15.1516L0.352525 15.4833L1.15252 15.4827ZM1.17605 47.2595L0.376046 47.26L0.376297 47.6003L0.621558 47.8361L1.17605 47.2595ZM1.78759 47.8475L1.2331 48.4241L1.46537 48.6475H1.78759V47.8475ZM11.1724 47.8475V48.6475H11.9724V47.8475H11.1724ZM11.1724 47.824L10.6067 47.2583L10.3724 47.4926V47.824H11.1724ZM22.3449 36.6515L22.9105 37.2172L23.1455 36.9822L23.1449 36.6499L22.3449 36.6515ZM22.3213 24.8911V24.0911H21.5197L21.5213 24.8927L22.3213 24.8911ZM22.3449 24.8911V25.6911H24.4387L22.8783 24.2949L22.3449 24.8911ZM23.5209 37.2395L24.0866 37.8052L24.3209 37.5709V37.2395H23.5209ZM11.7605 49V49.8H12.0918L12.3261 49.5657L11.7605 49ZM0 49H-0.8V49.8H0V49ZM0 13.7186V12.9186H-0.8V13.7186H0ZM11.7605 13.7186L12.2956 13.124L12.0674 12.9186H11.7605V13.7186ZM23.5209 24.303H24.3209V23.9468L24.0561 23.7084L23.5209 24.303ZM11.1724 14.0947H1.74055V15.6947H11.1724V14.0947ZM1.17486 14.329L0.586839 14.917L1.71821 16.0484L2.30623 15.4604L1.17486 14.329ZM0.352525 15.4833L0.376046 47.26L1.97605 47.2589L1.95252 15.4821L0.352525 15.4833ZM0.621558 47.8361L1.2331 48.4241L2.34208 47.2708L1.73053 46.6828L0.621558 47.8361ZM1.78759 48.6475H11.1724V47.0475H1.78759V48.6475ZM11.9724 47.8475V47.824H10.3724V47.8475H11.9724ZM11.7381 48.3896L22.9105 37.2172L21.7792 36.0858L10.6067 47.2583L11.7381 48.3896ZM23.1449 36.6499L23.1213 24.8895L21.5213 24.8927L21.5449 36.6531L23.1449 36.6499ZM22.3213 25.6911H22.3449V24.0911H22.3213V25.6911ZM22.8783 24.2949L11.7059 14.2985L10.639 15.4909L21.8114 25.4873L22.8783 24.2949ZM22.9552 36.6739L11.1948 48.4343L12.3261 49.5657L24.0866 37.8052L22.9552 36.6739ZM11.7605 48.2H0V49.8H11.7605V48.2ZM0.8 49V13.7186H-0.8V49H0.8ZM0 14.5186H11.7605V12.9186H0V14.5186ZM11.2253 14.3133L22.9857 24.8977L24.0561 23.7084L12.2956 13.124L11.2253 14.3133ZM22.7209 24.303V37.2395H24.3209V24.303H22.7209ZM29.4011 14.8947H28.6011V15.6947H29.4011V14.8947ZM29.4011 13.7186V12.9186H28.6011V13.7186H29.4011ZM52.922 13.7186H53.722V12.9186H52.922V13.7186ZM52.922 14.8947V15.6947H53.722V14.8947H52.922ZM42.3376 14.8947V14.0947H42.0063L41.7719 14.329L42.3376 14.8947ZM41.7496 15.4827L41.1839 14.917L40.9496 15.1513V15.4827H41.7496ZM41.7496 47.2359H40.9496V47.5673L41.1839 47.8016L41.7496 47.2359ZM42.3376 47.824L41.7719 48.3896L42.0063 48.624H42.3376V47.824ZM52.922 47.824H53.722V47.024H52.922V47.824ZM52.922 49V49.8H53.722V49H52.922ZM29.4011 49H28.6011V49.8H29.4011V49ZM29.4011 47.824V47.024H28.6011V47.824H29.4011ZM39.9855 47.824V48.624H40.3169L40.5512 48.3896L39.9855 47.824ZM40.5736 47.2359L41.1393 47.8016L41.3736 47.5673V47.2359H40.5736ZM40.5736 15.4827H41.3736V15.1513L41.1393 14.917L40.5736 15.4827ZM39.9855 14.8947L40.5512 14.329L40.3169 14.0947H39.9855V14.8947ZM30.2011 14.8947V13.7186H28.6011V14.8947H30.2011ZM29.4011 14.5186H52.922V12.9186H29.4011V14.5186ZM52.122 13.7186V14.8947H53.722V13.7186H52.122ZM52.922 14.0947H42.3376V15.6947H52.922V14.0947ZM41.7719 14.329L41.1839 14.917L42.3153 16.0484L42.9033 15.4604L41.7719 14.329ZM40.9496 15.4827V47.2359H42.5496V15.4827H40.9496ZM41.1839 47.8016L41.7719 48.3896L42.9033 47.2583L42.3153 46.6702L41.1839 47.8016ZM42.3376 48.624H52.922V47.024H42.3376V48.624ZM52.122 47.824V49H53.722V47.824H52.122ZM52.922 48.2H29.4011V49.8H52.922V48.2ZM30.2011 49V47.824H28.6011V49H30.2011ZM29.4011 48.624H39.9855V47.024H29.4011V48.624ZM40.5512 48.3896L41.1393 47.8016L40.0079 46.6702L39.4199 47.2583L40.5512 48.3896ZM41.3736 47.2359V15.4827H39.7736V47.2359H41.3736ZM41.1393 14.917L40.5512 14.329L39.4199 15.4604L40.0079 16.0484L41.1393 14.917ZM39.9855 14.0947H29.4011V15.6947H39.9855V14.0947ZM82.3232 49V49.8H83.1232V49H82.3232ZM58.8023 49H58.0023V49.8H58.8023V49ZM58.8023 13.7186V12.9186H58.0023V13.7186H58.8023ZM82.3232 13.7186H83.1232V12.9186H82.3232V13.7186ZM82.3232 25.4791V26.2791H83.1232V25.4791H82.3232ZM81.1471 25.4791H80.3471V26.2791H81.1471V25.4791ZM81.1471 15.4827H81.9471V15.1513L81.7128 14.917L81.1471 15.4827ZM80.5591 14.8947L81.1248 14.329L80.8905 14.0947H80.5591V14.8947ZM60.5428 14.8947V14.0947H60.2114L59.9771 14.329L60.5428 14.8947ZM59.9548 15.4827L59.3891 14.917L59.1548 15.1513V15.4827H59.9548ZM59.9548 47.2359H59.1548V47.5765L59.4003 47.8126L59.9548 47.2359ZM60.5663 47.824L60.0118 48.4006L60.2441 48.624H60.5663V47.824ZM81.1471 47.824V48.624H81.9471V47.824H81.1471ZM81.1471 38.4156H81.9471V38.0842L81.7128 37.8499L81.1471 38.4156ZM80.5591 37.8276L81.1248 37.2619L80.8905 37.0276H80.5591V37.8276ZM69.9747 37.8276H69.1747V38.6276H69.9747V37.8276ZM69.9747 36.6515V35.8515H69.1747V36.6515H69.9747ZM82.3232 36.6515H83.1232V35.8515H82.3232V36.6515ZM82.3232 48.2H58.8023V49.8H82.3232V48.2ZM59.6023 49V13.7186H58.0023V49H59.6023ZM58.8023 14.5186H82.3232V12.9186H58.8023V14.5186ZM81.5232 13.7186V25.4791H83.1232V13.7186H81.5232ZM82.3232 24.6791H81.1471V26.2791H82.3232V24.6791ZM81.9471 25.4791V15.4827H80.3471V25.4791H81.9471ZM81.7128 14.917L81.1248 14.329L79.9934 15.4604L80.5814 16.0484L81.7128 14.917ZM80.5591 14.0947H60.5428V15.6947H80.5591V14.0947ZM59.9771 14.329L59.3891 14.917L60.5205 16.0484L61.1085 15.4604L59.9771 14.329ZM59.1548 15.4827V47.2359H60.7548V15.4827H59.1548ZM59.4003 47.8126L60.0118 48.4006L61.1208 47.2473L60.5093 46.6593L59.4003 47.8126ZM60.5663 48.624H81.1471V47.024H60.5663V48.624ZM81.9471 47.824V38.4156H80.3471V47.824H81.9471ZM81.7128 37.8499L81.1248 37.2619L79.9934 38.3933L80.5814 38.9813L81.7128 37.8499ZM80.5591 37.0276H69.9747V38.6276H80.5591V37.0276ZM70.7747 37.8276V36.6515H69.1747V37.8276H70.7747ZM69.9747 37.4515H82.3232V35.8515H69.9747V37.4515ZM81.5232 36.6515V49H83.1232V36.6515H81.5232ZM88.2034 14.8947H87.4034V15.6947H88.2034V14.8947ZM88.2034 13.7186V12.9186H87.4034V13.7186H88.2034ZM111.724 13.7186H112.524V12.9186H111.724V13.7186ZM111.724 14.8947V15.6947H112.524V14.8947H111.724ZM101.14 14.8947V14.0947H100.809L100.574 14.329L101.14 14.8947ZM100.552 15.4827L99.9862 14.917L99.7519 15.1513V15.4827H100.552ZM100.552 47.2359H99.7519V47.5673L99.9862 47.8016L100.552 47.2359ZM101.14 47.824L100.574 48.3896L100.809 48.624H101.14V47.824ZM111.724 47.824H112.524V47.024H111.724V47.824ZM111.724 49V49.8H112.524V49H111.724ZM88.2034 49H87.4034V49.8H88.2034V49ZM88.2034 47.824V47.024H87.4034V47.824H88.2034ZM98.7878 47.824V48.624H99.1192L99.3535 48.3896L98.7878 47.824ZM99.3758 47.2359L99.9415 47.8016L100.176 47.5673V47.2359H99.3758ZM99.3758 15.4827H100.176V15.1513L99.9415 14.917L99.3758 15.4827ZM98.7878 14.8947L99.3535 14.329L99.1192 14.0947H98.7878V14.8947ZM89.0034 14.8947V13.7186H87.4034V14.8947H89.0034ZM88.2034 14.5186H111.724V12.9186H88.2034V14.5186ZM110.924 13.7186V14.8947H112.524V13.7186H110.924ZM111.724 14.0947H101.14V15.6947H111.724V14.0947ZM100.574 14.329L99.9862 14.917L101.118 16.0484L101.706 15.4604L100.574 14.329ZM99.7519 15.4827V47.2359H101.352V15.4827H99.7519ZM99.9862 47.8016L100.574 48.3896L101.706 47.2583L101.118 46.6702L99.9862 47.8016ZM101.14 48.624H111.724V47.024H101.14V48.624ZM110.924 47.824V49H112.524V47.824H110.924ZM111.724 48.2H88.2034V49.8H111.724V48.2ZM89.0034 49V47.824H87.4034V49H89.0034ZM88.2034 48.624H98.7878V47.024H88.2034V48.624ZM99.3535 48.3896L99.9415 47.8016L98.8101 46.6702L98.2221 47.2583L99.3535 48.3896ZM100.176 47.2359V15.4827H98.5758V47.2359H100.176ZM99.9415 14.917L99.3535 14.329L98.2221 15.4604L98.8101 16.0484L99.9415 14.917ZM98.7878 14.0947H88.2034V15.6947H98.7878V14.0947ZM117.605 14.8947H116.805V15.6947H117.605V14.8947ZM117.605 13.7186V12.9186H116.805V13.7186H117.605ZM141.125 13.7186H141.925V12.9186H141.125V13.7186ZM141.125 14.8947V15.6947H141.925V14.8947H141.125ZM130.541 14.8947V14.0947H130.21L129.975 14.329L130.541 14.8947ZM129.953 15.4827L129.387 14.917L129.153 15.1513V15.4827H129.953ZM129.953 49V49.8H130.753V49H129.953ZM128.777 49H127.977V49.8H128.777V49ZM128.777 15.4827H129.577V15.1513L129.343 14.917L128.777 15.4827ZM128.189 14.8947L128.755 14.329L128.52 14.0947H128.189V14.8947ZM118.405 14.8947V13.7186H116.805V14.8947H118.405ZM117.605 14.5186H141.125V12.9186H117.605V14.5186ZM140.325 13.7186V14.8947H141.925V13.7186H140.325ZM141.125 14.0947H130.541V15.6947H141.125V14.0947ZM129.975 14.329L129.387 14.917L130.519 16.0484L131.107 15.4604L129.975 14.329ZM129.153 15.4827V49H130.753V15.4827H129.153ZM129.953 48.2H128.777V49.8H129.953V48.2ZM129.577 49V15.4827H127.977V49H129.577ZM129.343 14.917L128.755 14.329L127.623 15.4604L128.211 16.0484L129.343 14.917ZM128.189 14.0947H117.605V15.6947H128.189V14.0947ZM156.367 36.0635L156.933 36.6292L157.167 36.3949V36.0635H156.367ZM156.367 24.8911H157.167V24.5462L156.916 24.3095L156.367 24.8911ZM145.783 14.8947L146.332 14.3131L145.783 13.7943L145.233 14.3131L145.783 14.8947ZM135.198 24.8911L134.649 24.3095L134.398 24.5462V24.8911H135.198ZM135.198 36.0635H134.398V36.3949L134.632 36.6292L135.198 36.0635ZM135.786 36.6515L135.221 37.2172L135.455 37.4515H135.786V36.6515ZM155.779 36.6515V37.4515H156.11L156.345 37.2172L155.779 36.6515ZM135.786 37.8276V37.0276H135.455L135.221 37.2619L135.786 37.8276ZM135.198 38.4156L134.632 37.8499L134.398 38.0842V38.4156H135.198ZM135.198 49V49.8H135.998V49H135.198ZM134.022 49H133.222V49.8H134.022V49ZM134.022 24.303L133.472 23.7223L133.222 23.9589V24.303H134.022ZM145.195 13.7186V12.9186H144.876L144.644 13.1379L145.195 13.7186ZM146.371 13.7186L146.921 13.1379L146.689 12.9186H146.371V13.7186ZM157.543 24.303H158.343V23.9589L158.093 23.7223L157.543 24.303ZM157.543 49V49.8H158.343V49H157.543ZM156.367 49H155.567V49.8H156.367V49ZM156.367 38.4156H157.167V38.0842L156.933 37.8499L156.367 38.4156ZM155.779 37.8276L156.345 37.2619L156.11 37.0276H155.779V37.8276ZM157.167 36.0635V24.8911H155.567V36.0635H157.167ZM156.916 24.3095L146.332 14.3131L145.233 15.4763L155.818 25.4727L156.916 24.3095ZM145.233 14.3131L134.649 24.3095L135.747 25.4727L146.332 15.4763L145.233 14.3131ZM134.398 24.8911V36.0635H135.998V24.8911H134.398ZM134.632 36.6292L135.221 37.2172L136.352 36.0858L135.764 35.4978L134.632 36.6292ZM135.786 37.4515H155.779V35.8515H135.786V37.4515ZM156.345 37.2172L156.933 36.6292L155.801 35.4978L155.213 36.0858L156.345 37.2172ZM135.221 37.2619L134.632 37.8499L135.764 38.9813L136.352 38.3933L135.221 37.2619ZM134.398 38.4156V49H135.998V38.4156H134.398ZM135.198 48.2H134.022V49.8H135.198V48.2ZM134.822 49V24.303H133.222V49H134.822ZM134.572 24.8838L145.745 14.2994L144.644 13.1379L133.472 23.7223L134.572 24.8838ZM145.195 14.5186H146.371V12.9186H145.195V14.5186ZM145.82 14.2994L156.993 24.8838L158.093 23.7223L146.921 13.1379L145.82 14.2994ZM156.743 24.303V49H158.343V24.303H156.743ZM157.543 48.2H156.367V49.8H157.543V48.2ZM157.167 49V38.4156H155.567V49H157.167ZM156.933 37.8499L156.345 37.2619L155.213 38.3933L155.801 38.9813L156.933 37.8499ZM155.779 37.0276H135.786V38.6276H155.779V37.0276ZM186.944 47.824H187.744V47.024H186.944V47.824ZM186.944 49V49.8H187.744V49H186.944ZM163.423 49H162.623V49.8H163.423V49ZM163.423 13.7186V12.9186H162.623V13.7186H163.423ZM164.576 13.7186H165.376V12.9186H164.576V13.7186ZM164.576 47.2359H163.776V47.5765L164.021 47.8126L164.576 47.2359ZM165.187 47.824L164.633 48.4006L164.865 48.624H165.187V47.824ZM186.144 47.824V49H187.744V47.824H186.144ZM186.944 48.2H163.423V49.8H186.944V48.2ZM164.223 49V13.7186H162.623V49H164.223ZM163.423 14.5186H164.576V12.9186H163.423V14.5186ZM163.776 13.7186V47.2359H165.376V13.7186H163.776ZM164.021 47.8126L164.633 48.4006L165.742 47.2473L165.13 46.6593L164.021 47.8126ZM165.187 48.624H186.944V47.024H165.187V48.624ZM245.746 49V49.8H246.546V49H245.746ZM222.226 49H221.426V49.8H222.226V49ZM222.226 13.7186V12.9186H221.426V13.7186H222.226ZM245.746 13.7186H246.546V12.9186H245.746V13.7186ZM245.746 25.4791V26.2791H246.546V25.4791H245.746ZM244.57 25.4791H243.77V26.2791H244.57V25.4791ZM244.57 15.4827H245.37V15.1513L245.136 14.917L244.57 15.4827ZM243.982 14.8947L244.548 14.329L244.314 14.0947H243.982V14.8947ZM223.966 14.8947V14.0947H223.635L223.4 14.329L223.966 14.8947ZM223.378 15.4827L222.812 14.917L222.578 15.1513V15.4827H223.378ZM223.378 47.2359H222.578V47.5765L222.824 47.8126L223.378 47.2359ZM223.99 47.824L223.435 48.4006L223.667 48.624H223.99V47.824ZM244.57 47.824V48.624H245.37V47.824H244.57ZM244.57 38.4156H245.37V38.0842L245.136 37.8499L244.57 38.4156ZM243.982 37.8276L244.548 37.2619L244.314 37.0276H243.982V37.8276ZM233.398 37.8276H232.598V38.6276H233.398V37.8276ZM233.398 36.6515V35.8515H232.598V36.6515H233.398ZM245.746 36.6515H246.546V35.8515H245.746V36.6515ZM245.746 48.2H222.226V49.8H245.746V48.2ZM223.026 49V13.7186H221.426V49H223.026ZM222.226 14.5186H245.746V12.9186H222.226V14.5186ZM244.946 13.7186V25.4791H246.546V13.7186H244.946ZM245.746 24.6791H244.57V26.2791H245.746V24.6791ZM245.37 25.4791V15.4827H243.77V25.4791H245.37ZM245.136 14.917L244.548 14.329L243.417 15.4604L244.005 16.0484L245.136 14.917ZM243.982 14.0947H223.966V15.6947H243.982V14.0947ZM223.4 14.329L222.812 14.917L223.944 16.0484L224.532 15.4604L223.4 14.329ZM222.578 15.4827V47.2359H224.178V15.4827H222.578ZM222.824 47.8126L223.435 48.4006L224.544 47.2473L223.933 46.6593L222.824 47.8126ZM223.99 48.624H244.57V47.024H223.99V48.624ZM245.37 47.824V38.4156H243.77V47.824H245.37ZM245.136 37.8499L244.548 37.2619L243.417 38.3933L244.005 38.9813L245.136 37.8499ZM243.982 37.0276H233.398V38.6276H243.982V37.0276ZM234.198 37.8276V36.6515H232.598V37.8276H234.198ZM233.398 37.4515H245.746V35.8515H233.398V37.4515ZM244.946 36.6515V49H246.546V36.6515H244.946ZM273.972 36.0635L274.537 36.6292L274.772 36.3949V36.0635H273.972ZM273.972 24.8911H274.772V24.5462L274.521 24.3095L273.972 24.8911ZM263.387 14.8947L263.936 14.3131L263.387 13.7943L262.838 14.3131L263.387 14.8947ZM252.803 24.8911L252.253 24.3095L252.003 24.5462V24.8911H252.803ZM252.803 36.0635H252.003V36.3949L252.237 36.6292L252.803 36.0635ZM253.391 36.6515L252.825 37.2172L253.059 37.4515H253.391V36.6515ZM273.384 36.6515V37.4515H273.715L273.949 37.2172L273.384 36.6515ZM253.391 37.8276V37.0276H253.059L252.825 37.2619L253.391 37.8276ZM252.803 38.4156L252.237 37.8499L252.003 38.0842V38.4156H252.803ZM252.803 49V49.8H253.603V49H252.803ZM251.627 49H250.827V49.8H251.627V49ZM251.627 24.303L251.076 23.7223L250.827 23.9589V24.303H251.627ZM262.799 13.7186V12.9186H262.48L262.249 13.1379L262.799 13.7186ZM263.975 13.7186L264.525 13.1379L264.294 12.9186H263.975V13.7186ZM275.148 24.303H275.948V23.9589L275.698 23.7223L275.148 24.303ZM275.148 49V49.8H275.948V49H275.148ZM273.972 49H273.172V49.8H273.972V49ZM273.972 38.4156H274.772V38.0842L274.537 37.8499L273.972 38.4156ZM273.384 37.8276L273.949 37.2619L273.715 37.0276H273.384V37.8276ZM274.772 36.0635V24.8911H273.172V36.0635H274.772ZM274.521 24.3095L263.936 14.3131L262.838 15.4763L273.422 25.4727L274.521 24.3095ZM262.838 14.3131L252.253 24.3095L253.352 25.4727L263.936 15.4763L262.838 14.3131ZM252.003 24.8911V36.0635H253.603V24.8911H252.003ZM252.237 36.6292L252.825 37.2172L253.956 36.0858L253.368 35.4978L252.237 36.6292ZM253.391 37.4515H273.384V35.8515H253.391V37.4515ZM273.949 37.2172L274.537 36.6292L273.406 35.4978L272.818 36.0858L273.949 37.2172ZM252.825 37.2619L252.237 37.8499L253.368 38.9813L253.956 38.3933L252.825 37.2619ZM252.003 38.4156V49H253.603V38.4156H252.003ZM252.803 48.2H251.627V49.8H252.803V48.2ZM252.427 49V24.303H250.827V49H252.427ZM252.177 24.8838L263.349 14.2994L262.249 13.1379L251.076 23.7223L252.177 24.8838ZM262.799 14.5186H263.975V12.9186H262.799V14.5186ZM263.425 14.2994L274.597 24.8838L275.698 23.7223L264.525 13.1379L263.425 14.2994ZM274.348 24.303V49H275.948V24.303H274.348ZM275.148 48.2H273.972V49.8H275.148V48.2ZM274.772 49V38.4156H273.172V49H274.772ZM274.537 37.8499L273.949 37.2619L272.818 38.3933L273.406 38.9813L274.537 37.8499ZM273.384 37.0276H253.391V38.6276H273.384V37.0276ZM282.792 14.8947V14.0947H282.461L282.226 14.329L282.792 14.8947ZM282.204 15.4827L281.638 14.917L281.404 15.1513V15.4827H282.204ZM282.204 30.1833H281.404V30.5239L281.649 30.7599L282.204 30.1833ZM282.815 30.7713L282.261 31.348L282.493 31.5713H282.815V30.7713ZM302.785 30.7713V31.5713H303.125L303.361 31.3258L302.785 30.7713ZM303.373 30.1598L303.949 30.7142L304.173 30.482V30.1598H303.373ZM303.373 15.4827H304.173V15.1609L303.95 14.9287L303.373 15.4827ZM302.808 14.8947L303.385 14.3407L303.149 14.0947H302.808V14.8947ZM281.028 13.7186V12.9186H280.228V13.7186H281.028ZM304.549 13.7186H305.349V12.9186H304.549V13.7186ZM304.549 31.9473V32.7473H305.349V31.9473H304.549ZM283.192 31.9473V31.1473H280.775L282.714 32.5894L283.192 31.9473ZM304.549 47.824H305.349V47.4218L305.026 47.1819L304.549 47.824ZM304.549 49V49.8H305.349V49H304.549ZM303.961 49L303.483 49.6419L303.696 49.8H303.961V49ZM282.204 32.8176L282.681 32.1757L281.404 31.2256V32.8176H282.204ZM282.204 49V49.8H283.004V49H282.204ZM281.028 49H280.228V49.8H281.028V49ZM282.226 14.329L281.638 14.917L282.77 16.0484L283.358 15.4604L282.226 14.329ZM281.404 15.4827V30.1833H283.004V15.4827H281.404ZM281.649 30.7599L282.261 31.348L283.37 30.1946L282.758 29.6066L281.649 30.7599ZM282.815 31.5713H302.785V29.9713H282.815V31.5713ZM303.361 31.3258L303.949 30.7142L302.796 29.6053L302.208 30.2168L303.361 31.3258ZM304.173 30.1598V15.4827H302.573V30.1598H304.173ZM303.95 14.9287L303.385 14.3407L302.231 15.4487L302.796 16.0367L303.95 14.9287ZM302.808 14.0947H282.792V15.6947H302.808V14.0947ZM281.028 14.5186H304.549V12.9186H281.028V14.5186ZM303.749 13.7186V31.9473H305.349V13.7186H303.749ZM304.549 31.1473H283.192V32.7473H304.549V31.1473ZM282.714 32.5894L304.071 48.466L305.026 47.1819L283.669 31.3053L282.714 32.5894ZM303.749 47.824V49H305.349V47.824H303.749ZM304.549 48.2H303.961V49.8H304.549V48.2ZM304.438 48.3581L282.681 32.1757L281.726 33.4595L303.483 49.6419L304.438 48.3581ZM281.404 32.8176V49H283.004V32.8176H281.404ZM282.204 48.2H281.028V49.8H282.204V48.2ZM281.828 49V13.7186H280.228V49H281.828ZM321.601 14.8947L322.135 14.2985L321.907 14.0947H321.601V14.8947ZM312.169 14.8947V14.0947H311.838L311.604 14.329L312.169 14.8947ZM311.581 15.4827L311.016 14.917L310.781 15.1516L310.781 15.4833L311.581 15.4827ZM311.605 47.2595L310.805 47.26L310.805 47.6003L311.05 47.8361L311.605 47.2595ZM312.217 47.8475L311.662 48.4241L311.894 48.6475H312.217V47.8475ZM321.601 47.8475V48.6475H322.401V47.8475H321.601ZM321.601 47.824L321.036 47.2583L320.801 47.4926V47.824H321.601ZM332.774 36.6515L333.339 37.2172L333.574 36.9822L333.574 36.6499L332.774 36.6515ZM332.75 24.8911V24.0911H331.949L331.95 24.8927L332.75 24.8911ZM332.774 24.8911V25.6911H334.868L333.307 24.2949L332.774 24.8911ZM333.95 37.2395L334.516 37.8052L334.75 37.5709V37.2395H333.95ZM322.189 49V49.8H322.521L322.755 49.5657L322.189 49ZM310.429 49H309.629V49.8H310.429V49ZM310.429 13.7186V12.9186H309.629V13.7186H310.429ZM322.189 13.7186L322.725 13.124L322.496 12.9186H322.189V13.7186ZM333.95 24.303H334.75V23.9468L334.485 23.7084L333.95 24.303ZM321.601 14.0947H312.169V15.6947H321.601V14.0947ZM311.604 14.329L311.016 14.917L312.147 16.0484L312.735 15.4604L311.604 14.329ZM310.781 15.4833L310.805 47.26L312.405 47.2589L312.381 15.4821L310.781 15.4833ZM311.05 47.8361L311.662 48.4241L312.771 47.2708L312.159 46.6828L311.05 47.8361ZM312.217 48.6475H321.601V47.0475H312.217V48.6475ZM322.401 47.8475V47.824H320.801V47.8475H322.401ZM322.167 48.3896L333.339 37.2172L332.208 36.0858L321.036 47.2583L322.167 48.3896ZM333.574 36.6499L333.55 24.8895L331.95 24.8927L331.974 36.6531L333.574 36.6499ZM332.75 25.6911H332.774V24.0911H332.75V25.6911ZM333.307 24.2949L322.135 14.2985L321.068 15.4909L332.24 25.4873L333.307 24.2949ZM333.384 36.6739L321.624 48.4343L322.755 49.5657L334.516 37.8052L333.384 36.6739ZM322.189 48.2H310.429V49.8H322.189V48.2ZM311.229 49V13.7186H309.629V49H311.229ZM310.429 14.5186H322.189V12.9186H310.429V14.5186ZM321.654 14.3133L333.415 24.8977L334.485 23.7084L322.725 13.124L321.654 14.3133ZM333.15 24.303V37.2395H334.75V24.303H333.15ZM339.83 49H339.03V49.8H339.83V49ZM339.83 13.7186V12.9186H339.03V13.7186H339.83ZM363.351 13.7186H364.151V12.9186H363.351V13.7186ZM363.351 14.8947V15.6947H364.151V14.8947H363.351ZM341.594 14.8947V14.0947H341.263L341.028 14.329L341.594 14.8947ZM341.006 15.4827L340.44 14.917L340.206 15.1513V15.4827H341.006ZM341.006 30.1833H340.206V30.5239L340.452 30.7599L341.006 30.1833ZM341.618 30.7713L341.063 31.348L341.295 31.5713H341.618V30.7713ZM358.059 30.7713H358.859V29.9713H358.059V30.7713ZM358.059 31.9473V32.7473H358.859V31.9473H358.059ZM341.594 31.9473V31.1473H341.263L341.028 31.3817L341.594 31.9473ZM341.006 32.5354L340.44 31.9697L340.206 32.204V32.5354H341.006ZM341.006 47.2359H340.206V47.5673L340.44 47.8016L341.006 47.2359ZM341.594 47.824L341.028 48.3896L341.263 48.624H341.594V47.824ZM363.351 47.824H364.151V47.024H363.351V47.824ZM363.351 49V49.8H364.151V49H363.351ZM340.63 49V13.7186H339.03V49H340.63ZM339.83 14.5186H363.351V12.9186H339.83V14.5186ZM362.551 13.7186V14.8947H364.151V13.7186H362.551ZM363.351 14.0947H341.594V15.6947H363.351V14.0947ZM341.028 14.329L340.44 14.917L341.572 16.0484L342.16 15.4604L341.028 14.329ZM340.206 15.4827V30.1833H341.806V15.4827H340.206ZM340.452 30.7599L341.063 31.348L342.172 30.1946L341.561 29.6066L340.452 30.7599ZM341.618 31.5713H358.059V29.9713H341.618V31.5713ZM357.259 30.7713V31.9473H358.859V30.7713H357.259ZM358.059 31.1473H341.594V32.7473H358.059V31.1473ZM341.028 31.3817L340.44 31.9697L341.572 33.1011L342.16 32.513L341.028 31.3817ZM340.206 32.5354V47.2359H341.806V32.5354H340.206ZM340.44 47.8016L341.028 48.3896L342.16 47.2583L341.572 46.6702L340.44 47.8016ZM341.594 48.624H363.351V47.024H341.594V48.624ZM362.551 47.824V49H364.151V47.824H362.551ZM363.351 48.2H339.83V49.8H363.351V48.2ZM370.407 15.4827L371.089 15.0641L369.607 12.651V15.4827H370.407ZM370.407 49V49.8H371.207V49H370.407ZM369.231 49H368.431V49.8H369.231V49ZM369.231 13.7186V12.9186H368.431V13.7186H369.231ZM370.995 13.7186L371.677 13.3L371.443 12.9186H370.995V13.7186ZM391.576 47.2359L390.894 47.6545L392.376 50.0677V47.2359H391.576ZM391.576 13.7186V12.9186H390.776V13.7186H391.576ZM392.752 13.7186H393.552V12.9186H392.752V13.7186ZM392.752 49V49.8H393.552V49H392.752ZM390.988 49L390.306 49.4186L390.54 49.8H390.988V49ZM369.607 15.4827V49H371.207V15.4827H369.607ZM370.407 48.2H369.231V49.8H370.407V48.2ZM370.031 49V13.7186H368.431V49H370.031ZM369.231 14.5186H370.995V12.9186H369.231V14.5186ZM370.314 14.1372L390.894 47.6545L392.258 46.8173L371.677 13.3L370.314 14.1372ZM392.376 47.2359V13.7186H390.776V47.2359H392.376ZM391.576 14.5186H392.752V12.9186H391.576V14.5186ZM391.952 13.7186V49H393.552V13.7186H391.952ZM392.752 48.2H390.988V49.8H392.752V48.2ZM391.67 48.5814L371.089 15.0641L369.725 15.9013L390.306 49.4186L391.67 48.5814Z" fill="#1202FF"/>
<path d="M73.4422 37.0468C73.4464 39.014 71.8885 40.5954 69.9831 40.5995C68.0776 40.6036 66.5129 39.029 66.5087 37.0617C66.5045 35.0945 68.0624 33.5131 69.9678 33.509C71.8733 33.5049 73.438 35.0795 73.4422 37.0468Z" fill="black" stroke="#110892"/>
<path d="M363.442 31.0468C363.446 33.014 361.889 34.5954 359.983 34.5995C358.078 34.6036 356.513 33.029 356.509 31.0617C356.504 29.0945 358.062 27.5131 359.968 27.509C361.873 27.5049 363.438 29.0795 363.442 31.0468Z" fill="black" stroke="#110892"/>
<path d="M190.792 47.046C190.797 49.2001 189.089 50.9449 186.984 50.9495C184.879 50.954 183.163 49.2165 183.159 47.0625C183.154 44.9084 184.862 43.1636 186.967 43.159C189.072 43.1545 190.788 44.892 190.792 47.046Z" fill="#110892" stroke="white" stroke-width="0.3"/>
<path d="M190.792 47.046C190.797 49.2001 189.089 50.9449 186.984 50.9495C184.879 50.954 183.163 49.2165 183.159 47.0625C183.154 44.9084 184.862 43.1636 186.967 43.159C189.072 43.1545 190.788 44.892 190.792 47.046Z" fill="#110892" stroke="white" stroke-width="0.3"/>
<path d="M395.792 15.046C395.797 17.2001 394.089 18.9449 391.984 18.9495C389.879 18.954 388.163 17.2165 388.159 15.0625C388.154 12.9084 389.862 11.1636 391.967 11.159C394.072 11.1545 395.788 12.892 395.792 15.046Z" fill="#110892" stroke="white" stroke-width="0.3"/>
<path d="M237.592 37.0465C237.597 39.0938 235.974 40.7452 233.983 40.7495C231.992 40.7537 230.363 39.1093 230.359 37.062C230.354 35.0147 231.976 33.3633 233.967 33.359C235.959 33.3548 237.588 34.9992 237.592 37.0465Z" fill="#4A4A4A" stroke="#110892" stroke-width="0.7"/>
</svg>
